<?xml version="1.0" encoding="utf-8"?>
<!-- Generator: Adobe Illustrator 26.1.0, SVG Export Plug-In . SVG Version: 6.00 Build 0)  -->
<svg version="1.1" xmlns="http://www.w3.org/2000/svg" xmlns:xlink="http://www.w3.org/1999/xlink" x="0px" y="0px"
	 viewBox="0 0 2373.3 1299.9" style="enable-background:new 0 0 2373.3 1299.9;" xml:space="preserve">
<style type="text/css">
	.st0{fill:#B2B2B2;}
	.st1{display:none;}
	.st2{fill:none;stroke:#707074;stroke-width:3;}
	.st3{fill:none;stroke:#707074;}
	.st4{fill:none;stroke:#707074;stroke-width:3;stroke-miterlimit:10;}
</style>
<g id="Слой_3">
	<polygon class="st0" points="75.6,1071.9 75.2,828.2 2.6,828 2.5,583.5 133.3,583.5 133.3,651.1 214.8,651.4 214.8,683 
		339.5,683.1 339.5,827.7 214.9,828 214.8,1071.9 	"/>
	<polygon class="st0" points="73,581.1 73.1,340.2 214.6,340.2 214.6,581.4 	"/>
	<polygon class="st0" points="529.7,733.8 529.7,857.5 545.2,874.1 666.5,874.1 684.6,855.7 684.3,733.8 	"/>
	<polygon class="st0" points="879.2,683.3 1061.1,683.1 1061.1,675.7 1083.2,675.7 1083.2,468.9 1078.9,468.9 1078.7,410.1 
		1083.2,410.1 1083.1,141.5 1078.6,141.5 1078.3,68.5 1162.2,67.8 1162.2,46.7 1173.2,46.7 1173.2,44.4 1169.7,44.4 1169.4,18.6 
		1185.6,2.6 1232,2.6 1250.4,19.6 1250.4,45.2 1243.7,45.2 1243.5,47.2 1256.4,47.6 1257.6,67.2 1339.9,68.2 1340.6,142.1 
		1334.6,142.1 1334.1,409.3 1338.3,410.2 1339.2,468.5 1333.6,468.8 1333.5,674.3 1352.8,674.8 1352.8,682.2 1542.5,682.9 
		1543,828.3 1415.2,828.3 1414.8,968.8 1354.7,968.8 1354.5,962.4 1057.8,963 1057.8,968.8 995.7,968.8 996.6,828.3 879.2,829.2 	
		"/>
	<polygon class="st0" points="1732.3,855.3 1731.9,740.7 1889.1,740.7 1888.3,847.7 1859.4,875.4 1751.6,875.4 	"/>
	<polygon class="st0" points="1671.1,387.3 1670.6,316.1 1743.2,315.5 1744.1,286.8 1874.8,286.8 1876.2,314.1 1946.2,314 
		1947.3,321.6 2190.1,321.6 2191.2,339 2333.5,340.2 2333.5,583.1 2340.9,583.5 2341.1,827.9 2332.5,828.5 2332.5,1072.1 
		2191.8,1072.6 2191.8,828.1 2082.8,827.8 2083.2,683.1 2191.2,682.8 2191.2,382.5 1946.1,382.6 1945.3,387.7 	"/>
</g>
<g id="Слой_1" class="st1">
	
		<image style="display:inline;overflow:visible;" width="2400" height="1350" xlink:href="../mb_Floor_3_Image.png"  transform="matrix(1 0 0 1 -5.8 -15.1)">
	</image>
</g>
<g id="Слой_2">
	<polyline class="st2" points="131.3,1133.8 37,1133.8 37,1175.8 37,1297.8 251,1297.8 251,1133.8 149.6,1133.8 	"/>
	<line class="st2" x1="131.3" y1="1174.9" x2="37.7" y2="1174.9"/>
	<line class="st2" x1="149.6" y1="1174.9" x2="251" y2="1174.9"/>
	<line class="st2" x1="174.1" y1="1144.7" x2="174.1" y2="1133.8"/>
	<line class="st2" x1="174.1" y1="1174.9" x2="174.1" y2="1162.8"/>
	<line class="st2" x1="174" y1="649.5" x2="174" y2="604.5"/>
	<line class="st2" x1="174" y1="583.2" x2="174" y2="586.8"/>
	<line class="st2" x1="71.8" y1="339.1" x2="215.9" y2="339.1"/>
	<line class="st2" x1="215.9" y1="277.5" x2="150.2" y2="277.5"/>
	<polyline class="st2" points="131.6,277.5 71.8,277.5 35.7,277.5 	"/>
	<line class="st2" x1="34.8" y1="238.8" x2="131.6" y2="238.8"/>
	<line class="st2" x1="150.2" y1="238.8" x2="249.1" y2="238.8"/>
	<line class="st2" x1="174" y1="239.7" x2="174" y2="250.4"/>
	<line class="st2" x1="174" y1="267.6" x2="174" y2="276.1"/>
	<line class="st2" x1="528.6" y1="732.6" x2="685.5" y2="732.6"/>
	<polyline class="st2" points="528.6,829 528.6,857.9 544.9,875 667,875 685.5,856.3 685.5,717.5 	"/>
	<polyline class="st2" points="685.5,700 685.5,554 699,554 768.3,487.4 768.3,393.5 701.7,325.4 636,325.4 636,287.5 580.2,287.5 
		580.2,326.2 515.6,326.2 445.2,392 445.2,484.2 515.8,552.8 516.9,554 597.8,554 	"/>
	<line class="st2" x1="685.5" y1="554" x2="614.7" y2="554"/>
	<line class="st2" x1="528.6" y1="682" x2="528.6" y2="554"/>
	<line class="st2" x1="562.8" y1="554" x2="562.8" y2="653.1"/>
	<line class="st2" x1="652.2" y1="653.1" x2="652.2" y2="555"/>
	<path class="st2" d="M628.7,588.5"/>
	<polyline class="st2" points="685.5,682.3 1060.2,682.3 1060.2,674.5 1082.1,674.5 1082.1,470 1077.8,470 1077.8,409.2 
		1082.1,409.2 1082.1,142.5 1077.2,142.5 1077.2,67.3 1161.3,67.3 1161.3,45.5 1173.9,45.5 1168.5,45.5 1168.5,18.3 1185.3,1.5 
		1232.6,1.5 1251.4,19.2 1251.4,46.5 1243.3,46.5 1257.6,46.5 1257.6,67.2 1340.6,67.2 1340.6,142.1 1334.6,142.1 1334.6,408.9 
		1339.2,408.9 1339.2,469.6 1334.2,469.6 1334.2,674 1353.8,674 1353.8,681.8 1731.3,681.8 1731.3,702.2 1731.3,554.2 1714.3,554.2 
		1651.5,484.2 1651.5,388.6 1669.9,388.6 1669.9,315.5 1743.2,315.5 1743.2,286.8 1876.2,286.8 1876.2,314.1 1947.3,314.1 
		1947.3,321.6 2191.2,321.6 	"/>
	<polyline class="st2" points="685.5,829.2 878.4,829.2 878.4,682.3 	"/>
	<polyline class="st2" points="878.4,829.2 995.7,829.2 995.7,969.9 1057.8,969.9 1057.8,963 1353.6,963 1353.6,969.9 1415.7,969.9 
		1415.7,829.2 1543.8,829.2 1543.8,681.8 	"/>
	<polyline class="st2" points="1543.8,829.2 1731.2,829.2 1731.2,856 1750.8,876.6 1859.7,876.6 1889.1,848.4 1889.1,719.4 	"/>
	<polyline class="st2" points="2332.8,339 2191.2,339 2191.2,276.9 2167.8,276.9 2167.8,112.2 2371.8,112.2 2371.8,276.9 
		2334.3,276.9 2334.3,582.3 2342.1,582.3 2342.1,829.2 2333.1,829.2 2333.1,1133.4 2369.1,1133.4 2369.1,1298.4 2153.7,1298.4 
		2153.7,1133.4 2190.6,1133.4 2190.6,829.2 1889.1,829.2 	"/>
	<line class="st2" x1="2082" y1="829.2" x2="2082" y2="682.2"/>
	<polyline class="st2" points="1669.9,388.6 1946.2,388.6 1946.2,383.4 2190.1,383.4 2190.1,682.2 1889.1,682.2 	"/>
	<polyline class="st2" points="1889.1,702.2 1889.1,554.2 1899.4,554.2 1961.8,485.9 1961.8,383.4 	"/>
	<line class="st2" x1="2153.7" y1="1175.2" x2="2249.5" y2="1175.2"/>
	<line class="st2" x1="2266.9" y1="1175.2" x2="2369.1" y2="1175.2"/>
	<line class="st2" x1="2190.6" y1="1133.4" x2="2249.5" y2="1133.4"/>
	<line class="st2" x1="2266.9" y1="1133.4" x2="2332.5" y2="1133.4"/>
	<line class="st2" x1="2191.1" y1="1073.6" x2="2332.5" y2="1073.6"/>
	<line class="st2" x1="2191.2" y1="276.9" x2="2252.4" y2="276.9"/>
	<line class="st2" x1="2270.7" y1="276.9" x2="2371.8" y2="276.9"/>
	<line class="st2" x1="2371" y1="239.1" x2="2270.1" y2="239.1"/>
	<line class="st2" x1="2252.4" y1="239.1" x2="2167.8" y2="239.1"/>
	<line class="st2" x1="2237.8" y1="240.2" x2="2237.8" y2="251.2"/>
	<line class="st2" x1="2237.8" y1="268.3" x2="2237.8" y2="276.2"/>
	<line class="st2" x1="1731.3" y1="554.2" x2="1803" y2="554.2"/>
	<line class="st2" x1="1819.5" y1="554.2" x2="1889.1" y2="554.2"/>
	<line class="st2" x1="1767.1" y1="554.2" x2="1767.1" y2="653.1"/>
	<line class="st2" x1="1854.3" y1="554.2" x2="1854.3" y2="653.1"/>
	<line class="st2" x1="1731.2" y1="829.2" x2="1731.2" y2="719.4"/>
	<line class="st2" x1="1889.1" y1="740" x2="1731.9" y2="740"/>
	<line class="st2" x1="124" y1="1155.1" x2="57.5" y2="1155.1"/>
	<line class="st3" x1="122.6" y1="1174.9" x2="122.6" y2="1134.4"/>
	<line class="st3" x1="117.3" y1="1174.9" x2="117.3" y2="1134.4"/>
	<line class="st3" x1="112.3" y1="1175" x2="112.3" y2="1134.4"/>
	<line class="st3" x1="107.3" y1="1174.9" x2="107.3" y2="1134.3"/>
	<line class="st3" x1="102" y1="1174.9" x2="102" y2="1134.3"/>
	<line class="st3" x1="97" y1="1174.9" x2="97" y2="1134.4"/>
	<line class="st3" x1="92.4" y1="1174.4" x2="92.4" y2="1133.8"/>
	<line class="st3" x1="87.1" y1="1174.4" x2="87.1" y2="1133.8"/>
	<line class="st3" x1="82.1" y1="1174.4" x2="82.1" y2="1133.9"/>
	<line class="st3" x1="77.1" y1="1174.4" x2="77.1" y2="1133.8"/>
	<line class="st3" x1="71.9" y1="1174.4" x2="71.9" y2="1133.8"/>
	<line class="st3" x1="66.9" y1="1174.4" x2="66.9" y2="1133.8"/>
	<line class="st3" x1="61.9" y1="1174.3" x2="61.9" y2="1133.8"/>
	<line class="st3" x1="45.6" y1="1174.9" x2="37.7" y2="1167"/>
	<line class="st3" x1="37.7" y1="1141.9" x2="45.6" y2="1134"/>
	<path d="M124.5,1143.4L124.5,1143.4c0.4,0.4,1,0.4,1.4,0l0.8-0.8c0.1-0.1,0.3,0,0.3,0.1v5.9c0,0.6,0.5,1,1,1l0,0c0.6,0,1-0.5,1-1
		v-5.9c0-0.2,0.2-0.2,0.3-0.1l0.8,0.8c0.4,0.4,1,0.4,1.4,0l0,0c0.4-0.4,0.4-1,0-1.4l-2.9-2.9c-0.3-0.3-0.8-0.3-1.2,0l-2.9,2.9
		C124.1,1142.4,124.1,1143.1,124.5,1143.4z"/>
	<path d="M131.5,1165.5L131.5,1165.5c-0.4-0.4-1-0.4-1.4,0l-0.8,0.8c-0.1,0.1-0.3,0-0.3-0.1v-5.9c0-0.6-0.5-1-1-1l0,0
		c-0.6,0-1,0.5-1,1v5.9c0,0.2-0.2,0.2-0.3,0.1l-0.8-0.8c-0.4-0.4-1-0.4-1.4,0l0,0c-0.4,0.4-0.4,1,0,1.4l2.9,2.9
		c0.3,0.3,0.8,0.3,1.2,0l2.9-2.9C131.9,1166.6,131.9,1165.9,131.5,1165.5z"/>
	<line class="st2" x1="122.4" y1="259.7" x2="55.9" y2="259.7"/>
	<line class="st3" x1="120.9" y1="278.3" x2="120.9" y2="240.2"/>
	<line class="st3" x1="115.7" y1="278.3" x2="115.7" y2="240.2"/>
	<line class="st3" x1="110.7" y1="278.4" x2="110.7" y2="240.3"/>
	<line class="st3" x1="105.7" y1="278.3" x2="105.7" y2="240.2"/>
	<line class="st3" x1="100.4" y1="278.3" x2="100.4" y2="240.2"/>
	<line class="st3" x1="95.4" y1="278.3" x2="95.4" y2="240.3"/>
	<line class="st3" x1="90.8" y1="277.8" x2="90.8" y2="239.8"/>
	<line class="st3" x1="85.5" y1="277.8" x2="85.5" y2="239.8"/>
	<line class="st3" x1="80.5" y1="277.9" x2="80.5" y2="239.8"/>
	<line class="st3" x1="75.5" y1="277.8" x2="75.5" y2="239.7"/>
	<line class="st3" x1="70.2" y1="277.8" x2="70.2" y2="239.7"/>
	<line class="st3" x1="65.2" y1="277.8" x2="65.2" y2="239.8"/>
	<line class="st3" x1="60.2" y1="277.8" x2="60.2" y2="239.7"/>
	<line class="st3" x1="44" y1="278.3" x2="36.1" y2="270.9"/>
	<line class="st3" x1="36.1" y1="247.3" x2="44" y2="239.9"/>
	<path d="M129.9,250.4L129.9,250.4c-0.4-0.4-1-0.4-1.4,0l-0.8,0.7c-0.1,0.1-0.3,0-0.3-0.1v-5.5c0-0.5-0.5-0.9-1-0.9l0,0
		c-0.6,0-1,0.4-1,0.9v5.5c0,0.2-0.2,0.2-0.3,0.1l-0.8-0.7c-0.4-0.4-1-0.4-1.4,0l0,0c-0.4,0.4-0.4,1,0,1.3l2.9,2.7
		c0.3,0.3,0.8,0.3,1.2,0l2.9-2.7C130.3,251.3,130.3,250.7,129.9,250.4z"/>
	<path d="M122.9,267.9L122.9,267.9c0.4,0.4,1,0.4,1.4,0l0.8-0.7c0.1-0.1,0.3,0,0.3,0.1l0,5.5c0,0.5,0.5,0.9,1,0.9l0,0
		c0.6,0,1-0.4,1-0.9v-5.5c0-0.2,0.2-0.2,0.3-0.1l0.8,0.7c0.4,0.4,1,0.4,1.4,0l0,0c0.4-0.4,0.4-1,0-1.3l-2.9-2.7
		c-0.3-0.3-0.8-0.3-1.2,0l-2.9,2.7C122.5,267,122.5,267.6,122.9,267.9z"/>
	<line class="st2" x1="2284.7" y1="258.7" x2="2351.2" y2="258.7"/>
	<line class="st3" x1="2286.1" y1="277.3" x2="2286.1" y2="239.3"/>
	<line class="st3" x1="2291.4" y1="277.3" x2="2291.4" y2="239.3"/>
	<line class="st3" x1="2296.4" y1="277.4" x2="2296.4" y2="239.3"/>
	<line class="st3" x1="2301.4" y1="277.3" x2="2301.4" y2="239.2"/>
	<line class="st3" x1="2306.7" y1="277.3" x2="2306.7" y2="239.2"/>
	<line class="st3" x1="2311.7" y1="277.3" x2="2311.7" y2="239.3"/>
	<line class="st3" x1="2316.3" y1="276.8" x2="2316.3" y2="238.8"/>
	<line class="st3" x1="2321.6" y1="276.8" x2="2321.6" y2="238.8"/>
	<line class="st3" x1="2326.6" y1="276.9" x2="2326.6" y2="238.8"/>
	<line class="st3" x1="2331.6" y1="276.8" x2="2331.6" y2="238.7"/>
	<line class="st3" x1="2336.8" y1="276.8" x2="2336.8" y2="238.7"/>
	<line class="st3" x1="2341.8" y1="276.9" x2="2341.8" y2="238.8"/>
	<line class="st3" x1="2346.8" y1="276.8" x2="2346.8" y2="238.7"/>
	<line class="st3" x1="2363.1" y1="277.3" x2="2371" y2="269.9"/>
	<line class="st3" x1="2371" y1="246.3" x2="2363.1" y2="239"/>
	<path d="M2277.2,249.4L2277.2,249.4c0.4-0.4,1-0.4,1.4,0l0.8,0.7c0.1,0.1,0.3,0,0.3-0.1v-5.5c0-0.5,0.5-0.9,1-0.9l0,0
		c0.6,0,1,0.4,1,0.9v5.5c0,0.2,0.2,0.2,0.3,0.1l0.8-0.7c0.4-0.4,1-0.4,1.4,0l0,0c0.4,0.4,0.4,1,0,1.3l-2.9,2.7
		c-0.3,0.3-0.8,0.3-1.2,0l-2.9-2.7C2276.8,250.3,2276.8,249.7,2277.2,249.4z"/>
	<path d="M2284.2,266.9L2284.2,266.9c-0.4,0.4-1,0.4-1.4,0l-0.8-0.7c-0.1-0.1-0.3,0-0.3,0.1v5.5c0,0.5-0.5,0.9-1,0.9l0,0
		c-0.6,0-1-0.4-1-0.9v-5.5c0-0.2-0.2-0.2-0.3-0.1l-0.8,0.7c-0.4,0.4-1,0.4-1.4,0l0,0c-0.4-0.4-0.4-1,0-1.3l2.9-2.7
		c0.3-0.3,0.8-0.3,1.2,0l2.9,2.7C2284.6,266,2284.6,266.6,2284.2,266.9z"/>
	<line class="st2" x1="2281.7" y1="1155.3" x2="2348.2" y2="1155.3"/>
	<line class="st3" x1="2283.1" y1="1175.1" x2="2283.1" y2="1134.6"/>
	<line class="st3" x1="2288.4" y1="1175.1" x2="2288.4" y2="1134.6"/>
	<line class="st3" x1="2293.4" y1="1175.2" x2="2293.4" y2="1134.6"/>
	<line class="st3" x1="2298.4" y1="1175.1" x2="2298.4" y2="1134.5"/>
	<line class="st3" x1="2303.7" y1="1175.1" x2="2303.7" y2="1134.5"/>
	<line class="st3" x1="2308.7" y1="1175.2" x2="2308.7" y2="1134.6"/>
	<line class="st3" x1="2313.3" y1="1174.6" x2="2313.3" y2="1134"/>
	<line class="st3" x1="2318.6" y1="1174.6" x2="2318.6" y2="1134"/>
	<line class="st3" x1="2323.6" y1="1174.7" x2="2323.6" y2="1134.1"/>
	<line class="st3" x1="2328.6" y1="1174.6" x2="2328.6" y2="1134"/>
	<line class="st3" x1="2333.8" y1="1174.6" x2="2333.8" y2="1134"/>
	<line class="st3" x1="2338.8" y1="1174.6" x2="2338.8" y2="1134.1"/>
	<line class="st3" x1="2343.8" y1="1174.6" x2="2343.8" y2="1134"/>
	<line class="st3" x1="2360.1" y1="1175.1" x2="2368" y2="1167.2"/>
	<line class="st3" x1="2368" y1="1142.1" x2="2360.1" y2="1134.2"/>
	<path d="M2281.1,1143.7L2281.1,1143.7c-0.4,0.4-1,0.4-1.4,0l-0.8-0.8c-0.1-0.1-0.3,0-0.3,0.1v5.9c0,0.6-0.5,1-1,1l0,0
		c-0.6,0-1-0.5-1-1v-5.9c0-0.2-0.2-0.2-0.3-0.1l-0.8,0.8c-0.4,0.4-1,0.4-1.4,0l0,0c-0.4-0.4-0.4-1,0-1.4l2.9-2.9
		c0.3-0.3,0.8-0.3,1.2,0l2.9,2.9C2281.5,1142.6,2281.5,1143.3,2281.1,1143.7z"/>
	<path d="M2274.1,1165.7L2274.1,1165.7c0.4-0.4,1-0.4,1.4,0l0.8,0.8c0.1,0.1,0.3,0,0.3-0.1v-5.9c0-0.6,0.5-1,1-1l0,0
		c0.6,0,1,0.5,1,1v5.9c0,0.2,0.2,0.2,0.3,0.1l0.8-0.8c0.4-0.4,1-0.4,1.4,0l0,0c0.4,0.4,0.4,1,0,1.4l-2.9,2.9c-0.3,0.3-0.8,0.3-1.2,0
		l-2.9-2.9C2273.7,1166.8,2273.7,1166.1,2274.1,1165.7z"/>
	<line class="st3" x1="563.5" y1="643.5" x2="651.1" y2="643.5"/>
	<line class="st3" x1="582.1" y1="649.4" x2="632.7" y2="649.4"/>
	<line class="st3" x1="563.5" y1="637.5" x2="652.3" y2="637.5"/>
	<line class="st3" x1="562.8" y1="631.6" x2="652.3" y2="631.6"/>
	<line class="st3" x1="562.8" y1="625.7" x2="652.3" y2="625.7"/>
	<line class="st3" x1="562.8" y1="619.8" x2="652.3" y2="619.8"/>
	<line class="st3" x1="563.8" y1="613.8" x2="651.3" y2="613.8"/>
	<line class="st3" x1="563.8" y1="607.9" x2="651.3" y2="607.9"/>
	<line class="st3" x1="563.8" y1="602" x2="651.3" y2="602"/>
	<line class="st3" x1="563.8" y1="596.1" x2="651.3" y2="596.1"/>
	<line class="st3" x1="563.8" y1="590.1" x2="651.3" y2="590.1"/>
	<polyline class="st2" points="562.8,587.3 583.3,587.3 583.3,652.9 	"/>
	<polyline class="st2" points="652.3,587.3 632.1,587.3 632.1,652.9 	"/>
	<path d="M603.2,658.4L603.2,658.4c0.6,0.6,1.4,0.6,2,0l1.1-1.1c0.2-0.2,0.4,0,0.4,0.2v8.3c0,0.8,0.6,1.4,1.4,1.4l0,0
		c0.8,0,1.4-0.6,1.4-1.4v-8.3c0-0.2,0.3-0.3,0.4-0.2l1.1,1.1c0.6,0.6,1.4,0.6,2,0l0,0c0.6-0.6,0.6-1.4,0-2l-4.1-4.1
		c-0.5-0.5-1.2-0.5-1.6,0l-4.1,4.1C602.7,657,602.7,657.9,603.2,658.4z"/>
	<path d="M576.2,652.7L576.2,652.7c-0.3-0.3-0.9-0.3-1.3,0l-0.7,0.7c-0.1,0.1-0.3,0-0.3-0.1v-5.2c0-0.5-0.4-0.9-0.9-0.9l0,0
		c-0.5,0-0.9,0.4-0.9,0.9v5.2c0,0.1-0.2,0.2-0.3,0.1l-0.7-0.7c-0.3-0.3-0.9-0.3-1.3,0l0,0c-0.3,0.3-0.3,0.9,0,1.3l2.6,2.6
		c0.3,0.3,0.7,0.3,1,0l2.6-2.6C576.5,653.6,576.5,653.1,576.2,652.7z"/>
	<path d="M645.3,652.7L645.3,652.7c-0.3-0.3-0.9-0.3-1.3,0l-0.7,0.7c-0.1,0.1-0.3,0-0.3-0.1v-5.2c0-0.5-0.4-0.9-0.9-0.9l0,0
		c-0.5,0-0.9,0.4-0.9,0.9v5.2c0,0.1-0.2,0.2-0.3,0.1l-0.7-0.7c-0.3-0.3-0.9-0.3-1.3,0l0,0c-0.3,0.3-0.3,0.9,0,1.3l2.6,2.6
		c0.3,0.3,0.7,0.3,1,0l2.6-2.6C645.7,653.6,645.7,653.1,645.3,652.7z"/>
	<line class="st3" x1="1766.5" y1="643.8" x2="1854" y2="643.8"/>
	<line class="st3" x1="1785.1" y1="649.7" x2="1835.6" y2="649.7"/>
	<line class="st3" x1="1766.5" y1="637.8" x2="1855.3" y2="637.8"/>
	<line class="st3" x1="1765.7" y1="631.9" x2="1855.3" y2="631.9"/>
	<line class="st3" x1="1765.7" y1="626" x2="1855.3" y2="626"/>
	<line class="st3" x1="1765.7" y1="620.1" x2="1855.3" y2="620.1"/>
	<line class="st3" x1="1766.7" y1="614.1" x2="1854.3" y2="614.1"/>
	<line class="st3" x1="1766.7" y1="608.2" x2="1854.3" y2="608.2"/>
	<line class="st3" x1="1766.7" y1="602.3" x2="1854.3" y2="602.3"/>
	<line class="st3" x1="1766.7" y1="596.4" x2="1854.3" y2="596.4"/>
	<line class="st3" x1="1766.7" y1="590.4" x2="1854.3" y2="590.4"/>
	<polyline class="st2" points="1765.7,587.6 1786.2,587.6 1786.2,653.2 	"/>
	<polyline class="st2" points="1855.3,587.6 1835.1,587.6 1835.1,653.2 	"/>
	<path d="M1806.2,658.7L1806.2,658.7c0.6,0.6,1.4,0.6,2,0l1.1-1.1c0.2-0.2,0.4,0,0.4,0.2v8.3c0,0.8,0.6,1.4,1.4,1.4l0,0
		c0.8,0,1.4-0.6,1.4-1.4v-8.3c0-0.2,0.3-0.3,0.4-0.2l1.1,1.1c0.6,0.6,1.4,0.6,2,0l0,0c0.6-0.6,0.6-1.4,0-2l-4.1-4.1
		c-0.5-0.5-1.2-0.5-1.6,0l-4.1,4.1C1805.6,657.3,1805.6,658.2,1806.2,658.7z"/>
	<path d="M1779.1,653L1779.1,653c-0.3-0.3-0.9-0.3-1.3,0l-0.7,0.7c-0.1,0.1-0.3,0-0.3-0.1v-5.2c0-0.5-0.4-0.9-0.9-0.9l0,0
		c-0.5,0-0.9,0.4-0.9,0.9v5.2c0,0.1-0.2,0.2-0.3,0.1l-0.7-0.7c-0.3-0.3-0.9-0.3-1.3,0l0,0c-0.3,0.3-0.3,0.9,0,1.3l2.6,2.6
		c0.3,0.3,0.7,0.3,1,0l2.6-2.6C1779.4,654,1779.4,653.4,1779.1,653z"/>
	<path d="M1848.3,653L1848.3,653c-0.3-0.3-0.9-0.3-1.3,0l-0.7,0.7c-0.1,0.1-0.3,0-0.3-0.1v-5.2c0-0.5-0.4-0.9-0.9-0.9l0,0
		c-0.5,0-0.9,0.4-0.9,0.9v5.2c0,0.1-0.2,0.2-0.3,0.1l-0.7-0.7c-0.3-0.3-0.9-0.3-1.3,0l0,0c-0.3,0.3-0.3,0.9,0,1.3l2.6,2.6
		c0.3,0.3,0.7,0.3,1,0l2.6-2.6C1848.6,654,1848.6,653.4,1848.3,653z"/>
	<g>
		<path d="M130.1,1239c0.4,0.3,1.4,0.7,2.4,0.7c1.9,0,2.4-1.2,2.4-2.1c0-1.5-1.4-2.1-2.8-2.1h-0.8v-1.1h0.8c1,0,2.4-0.5,2.4-1.8
			c0-0.9-0.5-1.6-1.9-1.6c-0.9,0-1.7,0.4-2.1,0.7l-0.4-1c0.6-0.4,1.6-0.8,2.8-0.8c2.1,0,3.1,1.2,3.1,2.5c0,1.1-0.7,2-2,2.5v0
			c1.3,0.3,2.4,1.2,2.4,2.7c0,1.7-1.3,3.2-3.9,3.2c-1.2,0-2.2-0.4-2.8-0.7L130.1,1239z"/>
		<path d="M145.3,1235.3c0,3.6-1.3,5.6-3.7,5.6c-2.1,0-3.5-2-3.5-5.5c0-3.6,1.5-5.5,3.7-5.5C144,1229.9,145.3,1231.9,145.3,1235.3z
			 M139.5,1235.4c0,2.8,0.9,4.3,2.2,4.3c1.5,0,2.2-1.7,2.2-4.4c0-2.6-0.7-4.3-2.2-4.3C140.4,1231,139.5,1232.5,139.5,1235.4z"/>
		<path d="M149.7,1231.4L149.7,1231.4l-1.9,1l-0.3-1.1l2.3-1.2h1.2v10.7h-1.4V1231.4z"/>
	</g>
	<g>
		<path d="M139.3,1104.5c0.4,0.3,1.4,0.7,2.4,0.7c1.9,0,2.4-1.2,2.4-2.1c0-1.5-1.4-2.1-2.8-2.1h-0.8v-1.1h0.8c1,0,2.4-0.5,2.4-1.8
			c0-0.9-0.5-1.6-1.9-1.6c-0.9,0-1.7,0.4-2.1,0.7l-0.4-1c0.6-0.4,1.6-0.8,2.8-0.8c2.1,0,3.1,1.2,3.1,2.5c0,1.1-0.7,2-2,2.5v0
			c1.3,0.3,2.4,1.2,2.4,2.7c0,1.7-1.3,3.2-3.9,3.2c-1.2,0-2.2-0.4-2.8-0.7L139.3,1104.5z"/>
		<path d="M154.5,1100.7c0,3.6-1.3,5.6-3.7,5.6c-2.1,0-3.5-2-3.5-5.5c0-3.6,1.5-5.5,3.7-5.5C153.2,1095.3,154.5,1097.3,154.5,1100.7
			z M148.7,1100.9c0,2.8,0.9,4.3,2.2,4.3c1.5,0,2.2-1.7,2.2-4.4c0-2.6-0.7-4.3-2.2-4.3C149.6,1096.4,148.7,1098,148.7,1100.9z"/>
		<path d="M156.2,1104.5c0.4,0.3,1.4,0.7,2.4,0.7c1.9,0,2.4-1.2,2.4-2.1c0-1.5-1.4-2.1-2.8-2.1h-0.8v-1.1h0.8c1,0,2.4-0.5,2.4-1.8
			c0-0.9-0.5-1.6-1.9-1.6c-0.9,0-1.7,0.4-2.1,0.7l-0.4-1c0.6-0.4,1.6-0.8,2.8-0.8c2.1,0,3.1,1.2,3.1,2.5c0,1.1-0.7,2-2,2.5v0
			c1.3,0.3,2.4,1.2,2.4,2.7c0,1.7-1.3,3.2-3.9,3.2c-1.2,0-2.2-0.4-2.8-0.7L156.2,1104.5z"/>
	</g>
	<g>
		<path d="M418.3,755.3c0.4,0.3,1.4,0.7,2.4,0.7c1.9,0,2.4-1.2,2.4-2.1c0-1.5-1.4-2.1-2.8-2.1h-0.8v-1.1h0.8c1,0,2.4-0.5,2.4-1.8
			c0-0.9-0.5-1.6-1.9-1.6c-0.9,0-1.7,0.4-2.1,0.7l-0.4-1c0.6-0.4,1.6-0.8,2.8-0.8c2.1,0,3.1,1.2,3.1,2.5c0,1.1-0.7,2-2,2.5v0
			c1.3,0.3,2.4,1.2,2.4,2.7c0,1.7-1.3,3.2-3.9,3.2c-1.2,0-2.2-0.4-2.8-0.7L418.3,755.3z"/>
		<path d="M429.5,747.6L429.5,747.6l-1.9,1l-0.3-1.1l2.3-1.2h1.2v10.7h-1.4V747.6z"/>
		<path d="M439.3,756.9V754h-5v-1l4.8-6.8h1.6v6.6h1.5v1.1h-1.5v2.9H439.3z M439.3,752.9v-3.6c0-0.6,0-1.1,0-1.7h0
			c-0.3,0.6-0.6,1.1-0.9,1.6l-2.6,3.6v0H439.3z"/>
	</g>
	<g>
		<path d="M183.8,620.2c0.4,0.3,1.4,0.7,2.4,0.7c1.9,0,2.4-1.2,2.4-2.1c0-1.5-1.4-2.1-2.8-2.1H185v-1.1h0.8c1,0,2.4-0.5,2.4-1.8
			c0-0.9-0.5-1.6-1.9-1.6c-0.9,0-1.7,0.4-2.1,0.7l-0.4-1c0.6-0.4,1.6-0.8,2.8-0.8c2.1,0,3.1,1.2,3.1,2.5c0,1.1-0.7,2-2,2.5v0
			c1.3,0.3,2.4,1.2,2.4,2.7c0,1.7-1.3,3.2-3.9,3.2c-1.2,0-2.2-0.4-2.8-0.7L183.8,620.2z"/>
		<path d="M198.9,616.4c0,3.6-1.3,5.6-3.7,5.6c-2.1,0-3.5-2-3.5-5.5c0-3.6,1.5-5.5,3.7-5.5C197.6,611,198.9,613,198.9,616.4z
			 M193.1,616.5c0,2.8,0.9,4.3,2.2,4.3c1.5,0,2.2-1.7,2.2-4.4c0-2.6-0.7-4.3-2.2-4.3C194,612.1,193.1,613.6,193.1,616.5z"/>
		<path d="M200.2,621.8v-0.9l1.1-1.1c2.7-2.6,4-4,4-5.6c0-1.1-0.5-2.1-2.1-2.1c-1,0-1.8,0.5-2.3,0.9l-0.5-1c0.7-0.6,1.8-1.1,3-1.1
			c2.3,0,3.3,1.6,3.3,3.1c0,2-1.4,3.6-3.7,5.7l-0.9,0.8v0h4.8v1.2H200.2z"/>
	</g>
	<g>
		<path d="M128.6,313.5c0.4,0.3,1.4,0.7,2.4,0.7c1.9,0,2.4-1.2,2.4-2.1c0-1.5-1.4-2.1-2.8-2.1h-0.8v-1.1h0.8c1,0,2.4-0.5,2.4-1.8
			c0-0.9-0.5-1.6-1.9-1.6c-0.9,0-1.7,0.4-2.1,0.7l-0.4-1c0.6-0.4,1.6-0.8,2.8-0.8c2.1,0,3.1,1.2,3.1,2.5c0,1.1-0.7,2-2,2.5v0
			c1.3,0.3,2.4,1.2,2.4,2.7c0,1.7-1.3,3.2-3.9,3.2c-1.2,0-2.2-0.4-2.8-0.7L128.6,313.5z"/>
		<path d="M143.7,309.7c0,3.6-1.3,5.6-3.7,5.6c-2.1,0-3.5-2-3.5-5.5c0-3.6,1.5-5.5,3.7-5.5C142.4,304.3,143.7,306.3,143.7,309.7z
			 M137.9,309.8c0,2.8,0.9,4.3,2.2,4.3c1.5,0,2.2-1.7,2.2-4.4c0-2.6-0.7-4.3-2.2-4.3C138.8,305.4,137.9,306.9,137.9,309.8z"/>
		<path d="M149.5,315.1v-2.9h-5v-1l4.8-6.8h1.6v6.6h1.5v1.1h-1.5v2.9H149.5z M149.5,311.1v-3.6c0-0.6,0-1.1,0-1.7h0
			c-0.3,0.6-0.6,1.1-0.9,1.6l-2.6,3.6v0H149.5z"/>
	</g>
	<g>
		<path d="M129.3,181.2c0.4,0.3,1.4,0.7,2.4,0.7c1.9,0,2.4-1.2,2.4-2.1c0-1.5-1.4-2.1-2.8-2.1h-0.8v-1.1h0.8c1,0,2.4-0.5,2.4-1.8
			c0-0.9-0.5-1.6-1.9-1.6c-0.9,0-1.7,0.4-2.1,0.7l-0.4-1c0.6-0.4,1.6-0.8,2.8-0.8c2.1,0,3.1,1.2,3.1,2.5c0,1.1-0.7,2-2,2.5v0
			c1.3,0.3,2.4,1.2,2.4,2.7c0,1.7-1.3,3.2-3.9,3.2c-1.2,0-2.2-0.4-2.8-0.7L129.3,181.2z"/>
		<path d="M144.4,177.4c0,3.6-1.3,5.6-3.7,5.6c-2.1,0-3.5-2-3.5-5.5c0-3.6,1.5-5.5,3.7-5.5C143.1,172,144.4,174,144.4,177.4z
			 M138.6,177.5c0,2.8,0.9,4.3,2.2,4.3c1.5,0,2.2-1.7,2.2-4.4c0-2.6-0.7-4.3-2.2-4.3C139.5,173.1,138.6,174.6,138.6,177.5z"/>
		<path d="M152.1,173.4H148l-0.4,2.7c0.2,0,0.5-0.1,0.9-0.1c0.8,0,1.6,0.2,2.3,0.6c0.8,0.5,1.5,1.4,1.5,2.7c0,2.1-1.7,3.6-4,3.6
			c-1.2,0-2.1-0.3-2.7-0.7l0.4-1.1c0.4,0.3,1.3,0.6,2.3,0.6c1.4,0,2.5-0.9,2.5-2.3c0-1.4-0.9-2.4-3.1-2.4c-0.6,0-1.1,0.1-1.5,0.1
			l0.7-5.1h5.1V173.4z"/>
	</g>
	<g>
		<path d="M597.2,442.5c0.4,0.3,1.4,0.7,2.4,0.7c1.9,0,2.4-1.2,2.4-2.1c0-1.5-1.4-2.1-2.8-2.1h-0.8v-1.1h0.8c1,0,2.4-0.5,2.4-1.8
			c0-0.9-0.5-1.6-1.9-1.6c-0.9,0-1.7,0.4-2.1,0.7l-0.4-1c0.6-0.4,1.6-0.8,2.8-0.8c2.1,0,3.1,1.2,3.1,2.5c0,1.1-0.7,2-2,2.5v0
			c1.3,0.3,2.4,1.2,2.4,2.7c0,1.7-1.3,3.2-3.9,3.2c-1.2,0-2.2-0.4-2.8-0.7L597.2,442.5z"/>
		<path d="M608.4,434.9L608.4,434.9l-1.9,1l-0.3-1.1l2.3-1.2h1.2v10.7h-1.4V434.9z"/>
		<path d="M614,442.5c0.4,0.3,1.4,0.7,2.4,0.7c1.9,0,2.4-1.2,2.4-2.1c0-1.5-1.4-2.1-2.8-2.1h-0.8v-1.1h0.8c1,0,2.4-0.5,2.4-1.8
			c0-0.9-0.5-1.6-1.9-1.6c-0.9,0-1.7,0.4-2.1,0.7l-0.4-1c0.6-0.4,1.6-0.8,2.8-0.8c2.1,0,3.1,1.2,3.1,2.5c0,1.1-0.7,2-2,2.5v0
			c1.3,0.3,2.4,1.2,2.4,2.7c0,1.7-1.3,3.2-3.9,3.2c-1.2,0-2.2-0.4-2.8-0.7L614,442.5z"/>
	</g>
	<g>
		<path d="M771.1,759.2c0.4,0.3,1.4,0.7,2.4,0.7c1.9,0,2.4-1.2,2.4-2.1c0-1.5-1.4-2.1-2.8-2.1h-0.8v-1.1h0.8c1,0,2.4-0.5,2.4-1.8
			c0-0.9-0.5-1.6-1.9-1.6c-0.9,0-1.7,0.4-2.1,0.7l-0.4-1c0.6-0.4,1.6-0.8,2.8-0.8c2.1,0,3.1,1.2,3.1,2.5c0,1.1-0.7,2-2,2.5v0
			c1.3,0.3,2.4,1.2,2.4,2.7c0,1.7-1.3,3.2-3.9,3.2c-1.2,0-2.2-0.4-2.8-0.7L771.1,759.2z"/>
		<path d="M782.3,751.5L782.3,751.5l-1.9,1l-0.3-1.1l2.3-1.2h1.2v10.7h-1.4V751.5z"/>
		<path d="M793.9,751.4h-4.1l-0.4,2.7c0.2,0,0.5-0.1,0.9-0.1c0.8,0,1.6,0.2,2.3,0.6c0.8,0.5,1.5,1.4,1.5,2.7c0,2.1-1.7,3.6-4,3.6
			c-1.2,0-2.1-0.3-2.7-0.7l0.4-1.1c0.4,0.3,1.3,0.6,2.3,0.6c1.4,0,2.5-0.9,2.5-2.3c0-1.4-0.9-2.4-3.1-2.4c-0.6,0-1.1,0.1-1.5,0.1
			l0.7-5.1h5.1V751.4z"/>
	</g>
	<g>
		<path d="M1623.8,759.4c0.4,0.3,1.4,0.7,2.4,0.7c1.9,0,2.4-1.2,2.4-2.1c0-1.5-1.4-2.1-2.8-2.1h-0.8v-1.1h0.8c1,0,2.4-0.5,2.4-1.8
			c0-0.9-0.5-1.6-1.9-1.6c-0.9,0-1.7,0.4-2.1,0.7l-0.4-1c0.6-0.4,1.6-0.8,2.8-0.8c2.1,0,3.1,1.2,3.1,2.5c0,1.1-0.7,2-2,2.5v0
			c1.3,0.3,2.4,1.2,2.4,2.7c0,1.7-1.3,3.2-3.9,3.2c-1.2,0-2.2-0.4-2.8-0.7L1623.8,759.4z"/>
		<path d="M1631.9,761v-0.9l1.1-1.1c2.7-2.6,4-4,4-5.6c0-1.1-0.5-2.1-2.1-2.1c-1,0-1.8,0.5-2.3,0.9l-0.5-1c0.7-0.6,1.8-1.1,3-1.1
			c2.3,0,3.3,1.6,3.3,3.1c0,2-1.4,3.6-3.7,5.7l-0.9,0.8v0h4.8v1.2H1631.9z"/>
		<path d="M1646.7,751.6h-4.1l-0.4,2.7c0.2,0,0.5-0.1,0.9-0.1c0.8,0,1.6,0.2,2.3,0.6c0.8,0.5,1.5,1.4,1.5,2.7c0,2.1-1.7,3.6-4,3.6
			c-1.2,0-2.1-0.3-2.7-0.7l0.4-1.1c0.4,0.3,1.3,0.6,2.3,0.6c1.4,0,2.5-0.9,2.5-2.3c0-1.4-0.9-2.4-3.1-2.4c-0.6,0-1.1,0.1-1.5,0.1
			l0.7-5.1h5.1V751.6z"/>
	</g>
	<g>
		<path d="M1800.2,470.7c0.4,0.3,1.4,0.7,2.4,0.7c1.9,0,2.4-1.2,2.4-2.1c0-1.5-1.4-2.1-2.8-2.1h-0.8v-1.1h0.8c1,0,2.4-0.5,2.4-1.8
			c0-0.9-0.5-1.6-1.9-1.6c-0.9,0-1.7,0.4-2.1,0.7l-0.4-1c0.6-0.4,1.6-0.8,2.8-0.8c2.1,0,3.1,1.2,3.1,2.5c0,1.1-0.7,2-2,2.5v0
			c1.3,0.3,2.4,1.2,2.4,2.7c0,1.7-1.3,3.2-3.9,3.2c-1.2,0-2.2-0.4-2.8-0.7L1800.2,470.7z"/>
		<path d="M1808.3,472.3v-0.9l1.1-1.1c2.7-2.6,4-4,4-5.6c0-1.1-0.5-2.1-2.1-2.1c-1,0-1.8,0.5-2.3,0.9l-0.5-1c0.7-0.6,1.8-1.1,3-1.1
			c2.3,0,3.3,1.6,3.3,3.1c0,2-1.4,3.6-3.7,5.7l-0.9,0.8v0h4.8v1.2H1808.3z"/>
		<path d="M1821.2,472.3v-2.9h-5v-1l4.8-6.8h1.6v6.6h1.5v1.1h-1.5v2.9H1821.2z M1821.2,468.3v-3.6c0-0.6,0-1.1,0-1.7h0
			c-0.3,0.6-0.6,1.1-0.9,1.6l-2.6,3.6v0H1821.2z"/>
	</g>
	<g>
		<path d="M2252,312.3c0.4,0.3,1.4,0.7,2.4,0.7c1.9,0,2.4-1.2,2.4-2.1c0-1.5-1.4-2.1-2.8-2.1h-0.8v-1.1h0.8c1,0,2.4-0.5,2.4-1.8
			c0-0.9-0.5-1.6-1.9-1.6c-0.9,0-1.7,0.4-2.1,0.7l-0.4-1c0.6-0.4,1.6-0.8,2.8-0.8c2.1,0,3.1,1.2,3.1,2.5c0,1.1-0.7,2-2,2.5v0
			c1.3,0.3,2.4,1.2,2.4,2.7c0,1.7-1.3,3.2-3.9,3.2c-1.2,0-2.2-0.4-2.8-0.7L2252,312.3z"/>
		<path d="M2260,314v-0.9l1.1-1.1c2.7-2.6,4-4,4-5.6c0-1.1-0.5-2.1-2.1-2.1c-1,0-1.8,0.5-2.3,0.9l-0.5-1c0.7-0.6,1.8-1.1,3-1.1
			c2.3,0,3.3,1.6,3.3,3.1c0,2-1.4,3.6-3.7,5.7l-0.9,0.8v0h4.8v1.2H2260z"/>
		<path d="M2275.4,303.3v1l-4.6,9.7h-1.5l4.6-9.4v0h-5.2v-1.2H2275.4z"/>
	</g>
	<g>
		<path d="M2259.9,179.1c0.4,0.3,1.4,0.7,2.4,0.7c1.9,0,2.4-1.2,2.4-2.1c0-1.5-1.4-2.1-2.8-2.1h-0.8v-1.1h0.8c1,0,2.4-0.5,2.4-1.8
			c0-0.9-0.5-1.6-1.9-1.6c-0.9,0-1.7,0.4-2.1,0.7l-0.4-1c0.6-0.4,1.6-0.8,2.8-0.8c2.1,0,3.1,1.2,3.1,2.5c0,1.1-0.7,2-2,2.5v0
			c1.3,0.3,2.4,1.2,2.4,2.7c0,1.7-1.3,3.2-3.9,3.2c-1.2,0-2.2-0.4-2.8-0.7L2259.9,179.1z"/>
		<path d="M2268,180.8v-0.9l1.1-1.1c2.7-2.6,4-4,4-5.6c0-1.1-0.5-2.1-2.1-2.1c-1,0-1.8,0.5-2.3,0.9l-0.5-1c0.7-0.6,1.8-1.1,3-1.1
			c2.3,0,3.3,1.6,3.3,3.1c0,2-1.4,3.6-3.7,5.7l-0.9,0.8v0h4.8v1.2H2268z"/>
		<path d="M2277.2,179.8c0.3,0,0.7,0,1.2,0c0.8-0.1,1.6-0.5,2.2-1c0.7-0.6,1.2-1.6,1.4-2.8h0c-0.6,0.7-1.4,1.1-2.5,1.1
			c-1.9,0-3.1-1.4-3.1-3.3c0-2,1.5-3.8,3.6-3.8s3.5,1.8,3.5,4.5c0,2.3-0.8,4-1.8,5c-0.8,0.8-2,1.3-3.1,1.4c-0.5,0.1-1,0.1-1.3,0.1
			V179.8z M2277.8,173.7c0,1.3,0.8,2.3,2.1,2.3c1,0,1.7-0.5,2.1-1.1c0.1-0.1,0.1-0.3,0.1-0.5c0-1.8-0.7-3.2-2.2-3.2
			C2278.6,171.1,2277.8,172.1,2277.8,173.7z"/>
	</g>
	<g>
		<path d="M1978.1,759.2c0.4,0.3,1.4,0.7,2.4,0.7c1.9,0,2.4-1.2,2.4-2.1c0-1.5-1.4-2.1-2.8-2.1h-0.8v-1.1h0.8c1,0,2.4-0.5,2.4-1.8
			c0-0.9-0.5-1.6-1.9-1.6c-0.9,0-1.7,0.4-2.1,0.7l-0.4-1c0.6-0.4,1.6-0.8,2.8-0.8c2.1,0,3.1,1.2,3.1,2.5c0,1.1-0.7,2-2,2.5v0
			c1.3,0.3,2.4,1.2,2.4,2.7c0,1.7-1.3,3.2-3.9,3.2c-1.2,0-2.2-0.4-2.8-0.7L1978.1,759.2z"/>
		<path d="M1986.2,760.8v-0.9l1.1-1.1c2.7-2.6,4-4,4-5.6c0-1.1-0.5-2.1-2.1-2.1c-1,0-1.8,0.5-2.3,0.9l-0.5-1c0.7-0.6,1.8-1.1,3-1.1
			c2.3,0,3.3,1.6,3.3,3.1c0,2-1.4,3.6-3.7,5.7l-0.9,0.8v0h4.8v1.2H1986.2z"/>
		<path d="M2000.7,751.2c-0.3,0-0.7,0-1.1,0.1c-2.3,0.4-3.5,2-3.7,3.8h0c0.5-0.7,1.4-1.2,2.6-1.2c1.9,0,3.2,1.4,3.2,3.4
			c0,2-1.3,3.8-3.5,3.8c-2.3,0-3.8-1.8-3.8-4.5c0-2.1,0.8-3.8,1.8-4.8c0.9-0.9,2.1-1.4,3.4-1.6c0.4-0.1,0.8-0.1,1-0.1V751.2z
			 M2000.3,757.3c0-1.5-0.9-2.4-2.2-2.4c-0.9,0-1.7,0.5-2.1,1.3c-0.1,0.2-0.2,0.4-0.2,0.6c0,1.8,0.8,3.1,2.3,3.1
			C1999.5,759.9,2000.3,758.9,2000.3,757.3z"/>
	</g>
	<g>
		<path d="M2252,1105.4c0.4,0.3,1.4,0.7,2.4,0.7c1.9,0,2.4-1.2,2.4-2.1c0-1.5-1.4-2.1-2.8-2.1h-0.8v-1.1h0.8c1,0,2.4-0.5,2.4-1.8
			c0-0.9-0.5-1.6-1.9-1.6c-0.9,0-1.7,0.4-2.1,0.7l-0.4-1c0.6-0.4,1.6-0.8,2.8-0.8c2.1,0,3.1,1.2,3.1,2.5c0,1.1-0.7,2-2,2.5v0
			c1.3,0.3,2.4,1.2,2.4,2.7c0,1.7-1.3,3.2-3.9,3.2c-1.2,0-2.2-0.4-2.8-0.7L2252,1105.4z"/>
		<path d="M2264.5,1107.1v-2.9h-5v-1l4.8-6.8h1.6v6.6h1.5v1.1h-1.5v2.9H2264.5z M2264.5,1103v-3.6c0-0.6,0-1.1,0-1.7h0
			c-0.3,0.6-0.6,1.1-0.9,1.6l-2.6,3.6v0H2264.5z"/>
		<path d="M2274.5,1097.4c-0.3,0-0.7,0-1.1,0.1c-2.3,0.4-3.5,2-3.7,3.8h0c0.5-0.7,1.4-1.2,2.6-1.2c1.9,0,3.2,1.4,3.2,3.4
			c0,2-1.3,3.8-3.5,3.8c-2.3,0-3.8-1.8-3.8-4.5c0-2.1,0.8-3.8,1.8-4.8c0.9-0.9,2.1-1.4,3.4-1.6c0.4-0.1,0.8-0.1,1-0.1V1097.4z
			 M2274.1,1103.6c0-1.5-0.9-2.4-2.2-2.4c-0.9,0-1.7,0.5-2.1,1.3c-0.1,0.2-0.2,0.4-0.2,0.6c0,1.8,0.8,3.1,2.3,3.1
			C2273.3,1106.1,2274.1,1105.1,2274.1,1103.6z"/>
	</g>
	<g>
		<path d="M2252.7,1239c0.4,0.3,1.4,0.7,2.4,0.7c1.9,0,2.4-1.2,2.4-2.1c0-1.5-1.4-2.1-2.8-2.1h-0.8v-1.1h0.8c1,0,2.4-0.5,2.4-1.8
			c0-0.9-0.5-1.6-1.9-1.6c-0.9,0-1.7,0.4-2.1,0.7l-0.4-1c0.6-0.4,1.6-0.8,2.8-0.8c2.1,0,3.1,1.2,3.1,2.5c0,1.1-0.7,2-2,2.5v0
			c1.3,0.3,2.4,1.2,2.4,2.7c0,1.7-1.3,3.2-3.9,3.2c-1.2,0-2.2-0.4-2.8-0.7L2252.7,1239z"/>
		<path d="M2267.1,1231.2h-4.1l-0.4,2.7c0.2,0,0.5-0.1,0.9-0.1c0.8,0,1.6,0.2,2.3,0.6c0.8,0.5,1.5,1.4,1.5,2.7c0,2.1-1.7,3.6-4,3.6
			c-1.2,0-2.1-0.3-2.7-0.7l0.4-1.1c0.4,0.3,1.3,0.6,2.3,0.6c1.4,0,2.5-0.9,2.5-2.3c0-1.4-0.9-2.4-3.1-2.4c-0.6,0-1.1,0.1-1.5,0.1
			l0.7-5.1h5.1V1231.2z"/>
		<path d="M2272.3,1231.4L2272.3,1231.4l-1.9,1l-0.3-1.1l2.3-1.2h1.2v10.7h-1.4V1231.4z"/>
	</g>
	<g id="XMLID_00000125566417596076788790000011253148498292195497_">
		<g>
		</g>
		<g>
			<polyline class="st2" points="74.4,1133.8 74.4,1073.2 74.4,829.2 1.5,829.2 1.5,582.5 71.8,582.5 71.8,278.7 34.8,278.7 
				34.8,112.1 250.2,112.1 250.2,277.5 215.9,277.5 215.9,582.5 215.9,650.2 215.9,682 340.8,682 528.6,682 528.6,700 			"/>
			<polyline class="st2" points="216,1133.8 216,1073.2 216,829 340.8,829 528.6,829 528.6,717.5 			"/>
			<polyline class="st2" points="71.8,582.5 134.6,582.5 215.9,582.5 			"/>
			<polyline class="st2" points="215.9,650.2 134.6,650.2 134.6,583.2 			"/>
			<line class="st2" x1="340.8" y1="682" x2="340.8" y2="827.7"/>
			<line class="st4" x1="74.4" y1="1073.2" x2="216" y2="1073.2"/>
		</g>
	</g>
	<line class="st2" x1="2237.7" y1="1133.4" x2="2237.7" y2="1144.5"/>
	<line class="st2" x1="2237.7" y1="1161.3" x2="2237.7" y2="1174.6"/>
</g>
</svg>
